<svg xmlns="http://www.w3.org/2000/svg" xmlns:xlink="http://www.w3.org/1999/xlink" width="500" zoomAndPan="magnify" viewBox="0 0 375 374.999991" height="500" preserveAspectRatio="xMidYMid meet" version="1.0"><defs><g/><clipPath id="5810709363"><path d="M 37.5 37.5 L 337.5 37.5 L 337.5 337.5 L 37.5 337.5 Z M 37.5 37.5 " clip-rule="nonzero"/></clipPath><clipPath id="3b08e38240"><path d="M 187.5 37.5 C 104.65625 37.5 37.5 104.65625 37.5 187.5 C 37.5 270.34375 104.65625 337.5 187.5 337.5 C 270.34375 337.5 337.5 270.34375 337.5 187.5 C 337.5 104.65625 270.34375 37.5 187.5 37.5 Z M 187.5 37.5 " clip-rule="nonzero"/></clipPath></defs><rect x="-37.5" width="450" fill="#ffffff" y="-37.499999" height="449.999989" fill-opacity="1"/><rect x="-37.5" width="450" fill="#f4b0ff" y="-37.499999" height="449.999989" fill-opacity="1"/><g clip-path="url(#5810709363)"><g clip-path="url(#3b08e38240)"><path fill="#a048d8" d="M 37.5 37.5 L 337.5 37.5 L 337.5 337.5 L 37.5 337.5 Z M 37.5 37.5 " fill-opacity="1" fill-rule="nonzero"/></g></g><g fill="#f4b0ff" fill-opacity="1"><g transform="translate(97.179234, 277.434919)"><g><path d="M 160.578125 -64.71875 C 160.578125 -41.425781 153.941406 -24.273438 140.671875 -13.265625 C 127.398438 -2.253906 108.3125 3.25 83.40625 3.25 C 58.488281 3.25 39.394531 -2.253906 26.125 -13.265625 C 12.863281 -24.273438 6.234375 -41.425781 6.234375 -64.71875 L 6.234375 -67.15625 L 62.28125 -67.15625 L 62.28125 -64.984375 C 62.28125 -56.503906 63.859375 -50.457031 67.015625 -46.84375 C 70.171875 -43.226562 75 -41.421875 81.5 -41.421875 C 88 -41.421875 92.828125 -43.226562 95.984375 -46.84375 C 99.148438 -50.457031 100.734375 -56.503906 100.734375 -64.984375 L 100.734375 -186.296875 L 160.578125 -186.296875 Z M 160.578125 -64.71875 "/></g></g></g></svg>